<?xml version="1.0" encoding="utf-8"?>
<!-- Generator: Adobe Illustrator 19.1.0, SVG Export Plug-In . SVG Version: 6.00 Build 0)  -->
<svg version="1.1" id="Layer_1" xmlns="http://www.w3.org/2000/svg" xmlns:xlink="http://www.w3.org/1999/xlink" x="0px" y="0px"
	 viewBox="3 -11.7 305 173.7" style="enable-background:new 3 -11.7 305 173.7;" xml:space="preserve">
<style type="text/css">
	.st0{fill:#E51A89;}
	.st1{fill:#387EF5;}
	.st2{fill:#FFFFFF;}
</style>
<g id="Layer_x0020_1">
	<path class="st0" d="M298.6,37.6L201.7-9.3c-4-2-9.1-1.9-13.4,0.2l-67.1,35.6l13.6,74.7c1.1,4.7,4.1,8.6,8.2,10.6l96.9,46.9
		c7.4,3.6,16.4,0.5,20-6.9l45.6-94.2C309.1,50.2,306,41.2,298.6,37.6L298.6,37.6z"/>
	<path class="st1" d="M14.5,50.6c-0.4,0.1-0.7,0.2-1,0.2c-0.3,0-0.6,0-1,0c-2,0-3.6-0.7-4.8-2.1c-1.2-1.4-1.8-3-1.8-4.8
		c0-1.3,0.4-2.6,1.2-3.7c0.8-1.2,2-2,3.7-2.6c8.4-2.8,17.1-5,26.1-6.8c9-1.8,18.1-3,27.2-3.6c1.9,0,3.4,0.7,4.6,2.1s1.8,3,1.8,4.7
		c0,1.3-0.5,2.7-1.4,4.1c-0.9,1.4-2.1,2.2-3.7,2.4c-3.3,0.4-6.6,0.8-9.8,1.1c-3.3,0.3-6.5,0.8-9.8,1.5c-0.5,1.8-1.2,3.9-1.9,6.5
		c-0.8,2.6-1.6,5.4-2.4,8.4s-1.7,6.2-2.5,9.5s-1.5,6.6-2.2,9.9s-1.2,6.4-1.6,9.4s-0.6,5.7-0.6,8.1s0.2,4.4,0.7,5.9
		c1.2,0,2.3-0.3,3.3-0.8s1.9-1.2,3-2c0.7-0.6,1.4-1.3,1.9-2c0.5-0.8,1.1-1.5,1.8-2.1c0.6-0.7,1.3-1.2,2.1-1.6s1.8-0.7,3.1-0.7
		c2.1,0,3.8,0.7,4.9,2c1.2,1.4,1.8,2.9,1.8,4.7c0,1.8-0.7,3.6-2.2,5.5s-3.4,3.7-5.6,5.3s-4.6,2.9-7.2,3.9s-5,1.5-7.2,1.5
		c-2.6,0-4.7-0.5-6.4-1.5c-1.7-1-3.1-2.4-4.2-4.1s-1.8-3.7-2.3-6.1c-0.5-2.3-0.7-4.8-0.7-7.5c0-3.8,0.3-7.9,1-12.4s1.5-9,2.5-13.4
		s2-8.7,3.1-12.7c1.1-4.1,2.1-7.5,3-10.5L14.5,50.6L14.5,50.6z M57.5,100.9c2-0.8,3.9-1.8,5.5-3c1.6-1.2,3-2.5,4.1-3.9
		s2.1-2.9,2.9-4.4s1.4-3,1.9-4.5c0.4-1.2,1.2-2.1,2.5-2.9s2.5-1.2,3.7-1.2c1.9,0,3.5,0.7,4.8,2.1s1.9,3,1.9,4.7
		c0,0.7-0.1,1.5-0.4,2.2s-0.6,1.5-1,2.4c-0.4,0.8-0.7,1.7-1,2.6S82,96.9,82,98c0,0.3,0.1,0.9,0.2,1.7c0.1,0.8,0.5,1.3,1,1.3
		c1.4,0,2.6-0.4,3.7-1.2C88,99,89,98.1,90,97.1s2-1.9,3-2.7c1-0.8,2.2-1.2,3.5-1.2c1.8,0,3.4,0.6,4.8,1.9s2.1,2.9,2.1,4.9
		c0,1.8-0.7,3.3-2.1,4.8c-1.4,1.4-2.8,2.8-4.3,4c-1.9,1.5-4,2.8-6.4,3.9c-2.3,1.1-4.8,1.7-7.3,1.7c-2.1,0-4.4-0.5-6.9-1.6
		c-2.4-1.1-4.3-2.8-5.5-5.2c-1.9,1.8-4,3.5-6.4,4.9c-2.3,1.4-4.8,2.1-7.5,2.1c-3.8,0-6.9-1.3-9.3-3.8s-3.6-5.8-3.6-9.7
		c0-3.1,0.8-6.5,2.4-10.2c1.6-3.8,3.7-7.5,6.1-11.1c2.5-3.6,5.2-7,8.3-10.1c3-3.1,6-5.6,8.9-7.5c1.6-1,3.3-1.9,5-2.6
		c1.8-0.7,3.5-1,5.2-1s3.2,0.3,4.7,1c1.4,0.7,2.6,1.6,3.6,2.7s1.8,2.4,2.3,3.9s0.8,3.1,0.8,4.8c0,1.2-0.2,2.4-0.5,3.7
		s-0.8,2.5-1.4,3.6s-1.4,2-2.4,2.7s-2.1,1-3.4,1c-1.7,0-3.2-0.6-4.7-1.8c-1.4-1.2-2.1-2.7-2.1-4.7c0-1,0.1-1.8,0.3-2.4
		c0.1-0.4,0.3-0.8,0.4-1.2c-1.7,0.7-3.7,2.1-6,4.3c-2.3,2.2-4.5,4.8-6.6,7.6c-2.1,2.8-3.9,5.8-5.4,8.9
		C58.3,95.7,57.5,98.5,57.5,100.9L57.5,100.9z M115.9,82.8c0,0.8,0.6,1.8,1.8,3c1.2,1.2,2.4,2.6,3.8,4.2s2.7,3.3,3.8,5.2
		c1.2,1.9,1.8,3.9,1.8,6.1c0,3.4-0.8,6.3-2.5,8.8s-3.8,4.6-6.3,6.2c-2.5,1.7-5.3,2.9-8.3,3.8s-5.8,1.3-8.6,1.3c-1.8,0-3.4-0.7-4.7-2
		c-1.3-1.4-2-2.9-2-4.8c0-1.7,0.5-3,1.4-3.8c0.9-0.9,2.1-1.6,3.5-2c1.4-0.5,2.9-0.8,4.5-1.1c1.6-0.3,3.2-0.6,4.5-1
		c1.4-0.4,2.5-1,3.5-1.8c0.9-0.8,1.4-2,1.4-3.6c0-1.5-0.6-3-1.8-4.4c-1.2-1.4-2.4-2.8-3.8-4.2s-2.7-2.9-3.8-4.5
		c-1.2-1.6-1.8-3.3-1.8-5.2c0-3.1,1-6,3-8.8s4.4-5.2,7.2-7.4c2.8-2.2,5.7-3.9,8.8-5.1c3-1.2,5.6-1.9,7.6-1.9c1.8,0,3.3,0.5,4.7,1.6
		s2.1,2.8,2.1,5.2c0,1-0.3,2-0.8,3s-1.4,1.7-2.6,2c-1.1,0.3-2.6,0.8-4.4,1.5c-1.9,0.7-3.7,1.6-5.4,2.6c-1.8,1-3.3,2.1-4.6,3.3
		C116.5,80.2,115.9,81.5,115.9,82.8L115.9,82.8z"/>
	<path class="st2" d="M167.8,100.8c1.4-0.4,2.6-1.1,3.8-2.1c1.1-1,2.2-2.1,3.2-3.2s2.1-2.1,3.2-2.9s2.3-1.3,3.7-1.3
		c1.8,0,3.4,0.7,4.8,2c1.4,1.3,2,2.9,2,4.7c0,1-0.2,1.9-0.6,2.6s-0.9,1.4-1.5,2.1c-1.2,1.5-2.5,3-3.9,4.4s-2.9,2.6-4.5,3.7
		s-3.3,1.9-5,2.5c-1.8,0.6-3.5,0.9-5.4,0.9c-2,0-3.9-0.4-5.4-1.2c-1.6-0.8-2.9-1.8-4.1-3.1c-1.2-1.3-2.2-2.8-3-4.4s-1.4-3.3-1.9-5.1
		c-0.8,1.5-1.5,2.9-2.1,4.4s-1.2,2.9-1.9,4.1s-1.5,2.2-2.4,2.9c-0.9,0.7-2.1,1.1-3.5,1.1c-2,0-3.7-0.7-4.9-2.1s-1.8-2.9-1.9-4.6
		c0.4-5.9,0.9-12,1.5-18.4c0.6-6.3,1.4-12.7,2.3-19c0.9-6.4,2-12.6,3.2-18.8s2.6-12,4.2-17.6c0.5-1.8,1.4-3,2.5-3.8
		c1.2-0.8,2.4-1.2,3.7-1.2c1.8,0,3.3,0.6,4.8,1.8c1.4,1.2,2.1,2.8,2.1,4.7c0,0.4,0,0.7-0.1,1c0,0.3-0.1,0.7-0.2,1
		c-1.8,6-3.2,12.1-4.4,18.3s-2.1,12.5-2.7,18.9c1.1-1.6,2.4-3.4,3.9-5.5c1.5-2,3.1-4,4.9-5.8c1.8-1.8,3.7-3.3,5.6-4.5
		s3.9-1.8,5.9-1.8c1.8,0,3.3,0.6,4.7,1.9c1.4,1.2,2,2.8,2,4.8c0,1.5-0.5,2.7-1.4,3.7s-2.1,1.9-3.5,2.7c-1.9,1.2-3.8,2.7-5.6,4.7
		s-3.2,3.8-4.2,5.5c-0.7,3.9-1,7.2-1,10.1c0,3.1,0.3,5.6,0.9,7.5C166.3,98.5,167,99.9,167.8,100.8L167.8,100.8z M193.3,100.5
		c0.6,0,1.4-0.5,2.4-1.6s2.1-2.2,3.3-3.5s2.5-2.4,3.8-3.5c1.4-1.1,2.6-1.6,3.9-1.6c1.8,0,3.4,0.7,4.8,2c1.4,1.3,2.1,2.9,2.1,4.8
		c0,1.2-0.7,2.8-2.1,4.8c-1.4,1.9-3.1,3.8-5.2,5.6c-2.1,1.8-4.4,3.4-7,4.7c-2.6,1.3-5,2-7.2,2c-1.9,0-3.6-0.4-5.2-1.1
		c-1.5-0.7-2.8-1.7-3.9-3c-1.1-1.2-1.9-2.6-2.4-4.2s-0.8-3.2-0.8-5c0-2.6,0.3-5.7,0.9-9.2s1.4-7,2.5-10.6c1-3.6,2.2-7,3.4-10.3
		s2.5-6.1,3.8-8.3c0.6-1.2,1.5-2,2.7-2.5s2.3-0.8,3.3-0.8c1.8,0,3.3,0.7,4.7,2s2,2.9,2,4.8c0,0.3,0,0.6-0.1,1s-0.3,0.9-0.7,1.6
		c-0.8,2-1.7,4.3-2.8,7s-2.1,5.5-3,8.4s-1.7,5.8-2.4,8.7C193.6,95.6,193.3,98.2,193.3,100.5L193.3,100.5z M202,54.4
		c-1.8,0-3.3-0.7-4.7-2s-2.1-2.9-2.1-4.8c0-0.1,0-0.3,0.1-0.5c0-0.2,0.1-0.6,0.3-1.1c0.1-0.5,0.4-1.3,0.7-2.2c0.3-1,0.7-2.3,1.3-4
		c0.5-1.5,1.3-2.7,2.5-3.6c1.1-0.9,2.4-1.3,3.9-1.3c1.9,0,3.5,0.7,4.9,2c1.4,1.4,2,2.9,2,4.8c0,0.1,0,0.3-0.1,0.5
		c0,0.2-0.1,0.5-0.3,1.1c-0.1,0.5-0.4,1.3-0.7,2.3s-0.7,2.3-1.3,4c-0.5,1.5-1.4,2.7-2.5,3.6C204.8,54,203.5,54.4,202,54.4L202,54.4z
		 M229.6,59c-0.4-1.6-1-3.3-1.6-5.2c-0.7-1.9-1.4-3.7-2.2-5.6c-0.8-1.9-1.6-3.7-2.5-5.5s-1.7-3.5-2.5-5c-0.1-0.4-0.3-0.9-0.5-1.4
		s-0.3-1-0.3-1.5v-0.5c0.1-1.6,0.6-3.1,1.6-4.5s2.7-2.1,5.1-2.1c1.2,0,2.3,0.3,3.3,0.9c1.1,0.6,1.9,1.4,2.5,2.4
		c2,3.5,3.9,7.3,5.7,11.3s3.3,8.2,4.6,12.4c1.3,4.3,2.3,8.6,3.1,12.9c0.7,4.3,1.1,8.6,1.1,12.7c0,3-0.4,6.5-1.3,10.4
		c-0.8,3.9-2.2,7.7-4.1,11.2c-1.9,3.5-4.3,6.5-7.2,8.9s-6.5,3.6-10.6,3.6c-2.9,0-5.4-0.5-7.6-1.5s-4.1-2.3-5.6-4s-2.7-3.6-3.5-5.9
		c-0.8-2.2-1.2-4.6-1.2-7.2c0-4.2,0.6-8.5,1.9-12.9c1.2-4.3,2.9-8.3,5-11.9s4.5-6.5,7.1-8.8c2.7-2.3,5.4-3.4,8.2-3.4
		C228.6,58.8,229.1,58.9,229.6,59L229.6,59z M232.6,70.7c-2.2,0.4-4.1,1.5-5.8,3.3c-1.6,1.8-3,4-4.2,6.6c-1.1,2.6-2,5.2-2.5,8
		s-0.8,5.3-0.8,7.5c0,1.2,0.3,2.3,0.8,3.3c0.5,0.9,1.6,1.4,3,1.4c1.8,0,3.4-0.7,4.7-2.2s2.4-3.3,3.2-5.4s1.4-4.4,1.8-6.7
		c0.4-2.4,0.5-4.4,0.5-6.2c0-1.6-0.1-3.2-0.2-4.8C233.1,73.8,232.9,72.3,232.6,70.7L232.6,70.7z M264.8,82.8c0,0.8,0.6,1.8,1.8,3
		c1.2,1.2,2.4,2.6,3.8,4.2s2.7,3.3,3.8,5.2c1.2,1.9,1.8,3.9,1.8,6.1c0,3.4-0.8,6.3-2.5,8.8s-3.8,4.6-6.3,6.2
		c-2.5,1.7-5.3,2.9-8.3,3.8s-5.8,1.3-8.6,1.3c-1.8,0-3.4-0.7-4.7-2c-1.3-1.4-2-2.9-2-4.8c0-1.7,0.5-3,1.4-3.8c0.9-0.9,2.1-1.6,3.5-2
		c1.4-0.5,2.9-0.8,4.5-1.1c1.6-0.3,3.2-0.6,4.5-1c1.4-0.4,2.5-1,3.5-1.8s1.4-2,1.4-3.6c0-1.5-0.6-3-1.8-4.4s-2.4-2.8-3.8-4.2
		c-1.4-1.4-2.7-2.9-3.8-4.5c-1.2-1.6-1.8-3.3-1.8-5.2c0-3.1,1-6,3-8.8c2-2.8,4.4-5.2,7.2-7.4c2.8-2.2,5.7-3.9,8.8-5.1
		c3-1.2,5.6-1.9,7.6-1.9c1.8,0,3.3,0.5,4.7,1.6c1.4,1.1,2.1,2.8,2.1,5.2c0,1-0.3,2-0.8,3s-1.4,1.7-2.6,2c-1.1,0.3-2.6,0.8-4.4,1.5
		c-1.9,0.7-3.7,1.6-5.4,2.6c-1.8,1-3.3,2.1-4.6,3.3C265.5,80.2,264.8,81.5,264.8,82.8L264.8,82.8z"/>
</g>
</svg>
